<svg xmlns="http://www.w3.org/2000/svg" width="174" height="174" viewBox="0 0 174 174">
  <defs>
    <style>
      .cls-1 {
        fill: #fff;
        fill-rule: evenodd;
      }
    </style>
  </defs>
  <path class="cls-1" d="M84.82,91.155c8.979,0,18.125-8.539,18.125-17.578S94.238,55.332,85.259,55.332s-17.9,9.425-17.9,18.46S75.845,91.155,84.82,91.155Zm35.366,52.339V116.378c0-8.864.586-8.013,0-13.556-2.243-6.782-6.732-9.04-11.222-9.04h-20.2c-9.019,0-13.4-.028-22.376-0.028-4.486,0-7.41-.3-10.74,2.748-4.542,5.182-4.087,5.635-4.087,20.1v27.592c0,7.14-1.2,18.249,5.9,18.249,6.741,0,6.677-4.841,6.677-12.052,0-10.187-.024-12.83-0.024-18.846,0-6.577-.375-7.7.94-7.7s1.31,0.088,1.31,7.079c0,6.477-.047,97.683-0.047,102.957,0,4.52,2.394,9.36,9.154,9.36,6.74,0,9.553-3.97,9.553-8.49V187.3c0-4.52.152-6.71,1.263-6.71,1.131,0,.984,2.19.984,6.71v47.45a9.774,9.774,0,0,0,9.7,8.916c4.489,0,8.617-5.808,8.617-8.82,0-18.076.1-98.509,0.1-104.2,0-3.08-.263-6.995.885-6.995s1.123,1.063,1.123,5.507v17.4c0,11.884,1.833,15,6.322,15C120.756,161.569,120.186,149.963,120.186,143.494Z"/>
</svg>
