<svg xmlns="http://www.w3.org/2000/svg" width="174" height="174" viewBox="0 0 174 174">
  <defs>
    <style>
      .cls-1 {
        fill: #fff;
        fill-opacity: 0.5;
        fill-rule: evenodd;
      }
    </style>
  </defs>
  <path class="cls-1" d="M115.859,52.251L74.131,59.764v47.845c-1.113-1.055-2.968-1.365-5.133-1.365a13.2,13.2,0,0,0-7.792,3.164c-2.35,1.861-4.082,4.4-4.082,6.947a4.861,4.861,0,0,0,1.855,3.909,7,7,0,0,0,4.453,1.489,13.762,13.762,0,0,0,8.163-2.978c2.412-1.861,4.082-4.405,4.082-7.2V65.355L114.329,58.4v41.975c-1.113-1.055-2.969-1.364-5.133-1.364a13.2,13.2,0,0,0-7.792,3.163c-2.351,1.861-4.083,4.405-4.083,6.948a4.861,4.861,0,0,0,1.856,3.909,7,7,0,0,0,4.453,1.488,13.762,13.762,0,0,0,8.163-2.977c2.412-1.862,4.082-4.405,4.082-7.2Z"/>
</svg>
